<?xml version="1.0" encoding="iso-8859-1"?>
<!-- Generator: Adobe Illustrator 19.0.0, SVG Export Plug-In . SVG Version: 6.00 Build 0)  -->
<svg version="1.1" id="Layer_1" xmlns="http://www.w3.org/2000/svg" xmlns:xlink="http://www.w3.org/1999/xlink" x="0px" y="0px"
	 viewBox="0 0 512 512" style="enable-background:new 0 0 512 512;" xml:space="preserve">
<path style="fill:#008CCB;" d="M348.029,391.512v68.553h19.63c12.037,0,21.787-9.75,21.787-21.787v-14.081L348.029,391.512z"/>
<path style="fill:#3AAADC;" d="M365.982,326.151v112.128c0,12.037-8.039,21.787-17.953,21.787H144.34
	c-12.037,0-21.787-9.75-21.787-21.787v-14.085L365.982,326.151z"/>
<path style="fill:#008CCB;" d="M460.255,215.345h43.574c0,19.086-2.157,36.613-6.242,54.457H435.2L460.255,215.345z"/>
<path style="fill:#AEE6FF;" d="M435.2,269.802h62.388c-14.685,64.196-54.316,119.939-108.141,154.395h-23.465L435.2,269.802z"/>
<path style="fill:#3AAADC;" d="M6.536,215.345h452.085c0,18.704-1.71,36.929-4.946,54.457L233.112,324.27L12.549,269.802
	C8.606,252.274,6.536,234.049,6.536,215.345z"/>
<path style="fill:#FFFFFF;" d="M12.549,269.802h441.126c-11.95,64.654-44.729,119.754-89.328,154.395H120.919
	C66.8,389.556,27.038,334.456,12.549,269.802z"/>
<polygon style="fill:#F7A676;" points="503.83,51.93 503.83,84.611 471.149,84.611 449.362,68.275 471.149,51.93 "/>
<path style="fill:#FBCFA3;" d="M471.149,51.93v32.681H24.511c-9.02,0-16.34-7.31-16.34-16.34c0-9.02,7.321-16.34,16.34-16.34
	H471.149z"/>
<path style="fill:#F7A676;" d="M487.489,117.292h-32.681v32.681h32.681c9.02,0,16.34-7.31,16.34-16.34
	C503.83,124.612,496.509,117.292,487.489,117.292z"/>
<path style="fill:#FBCFA3;" d="M454.809,117.292c9.02,0,16.34,7.321,16.34,16.34c0,9.031-7.321,16.34-16.34,16.34H8.17v-32.681
	H454.809z"/>
<path d="M503.83,207.175L8.17,207.168c-2.167,0-4.244,0.861-5.777,2.393C0.861,211.093,0,213.172,0,215.338
	c0,86.223,42.672,165.616,114.383,213.283v9.657c0,16.519,13.438,29.957,29.957,29.957H367.66c16.519,0,29.957-13.438,29.957-29.957
	v-9.657C469.328,380.954,512,301.564,512,215.345C512,210.833,508.342,207.175,503.83,207.175z M385.041,417.316
	c-2.345,1.502-3.765,4.096-3.765,6.88v14.081c0,7.509-6.108,13.617-13.617,13.617H144.34c-7.509,0-13.617-6.108-13.617-13.617
	v-14.082c0-2.786-1.419-5.379-3.765-6.88C75.812,384.568,39.91,334.821,24.614,277.976h65.82c4.512,0,8.17-3.658,8.17-8.17
	s-3.658-8.17-8.17-8.17H20.82c-2.431-12.46-3.91-25.198-4.343-38.128l479.046,0.007c-0.434,12.927-1.911,25.663-4.342,38.121
	H123.115c-4.512,0-8.17,3.658-8.17,8.17s3.658,8.17,8.17,8.17h364.272C472.091,334.822,436.189,384.568,385.041,417.316z"/>
<path d="M356.766,416.026H155.234c-4.512,0-8.17,3.658-8.17,8.17c0,4.512,3.658,8.17,8.17,8.17h201.532
	c4.512,0,8.17-3.658,8.17-8.17C364.936,419.684,361.278,416.026,356.766,416.026z"/>
<path d="M503.83,43.764H24.511C10.995,43.764,0,54.759,0,68.275s10.995,24.511,24.511,24.511H503.83c4.512,0,8.17-3.658,8.17-8.17
	V51.934C512,47.422,508.342,43.764,503.83,43.764z M495.66,76.445H24.511c-4.506,0-8.17-3.665-8.17-8.17s3.665-8.17,8.17-8.17
	H495.66V76.445z"/>
<path d="M487.489,109.126H8.17c-4.512,0-8.17,3.658-8.17,8.17v32.681c0,4.512,3.658,8.17,8.17,8.17h479.319
	c13.516,0,24.511-10.995,24.511-24.511C512,120.121,501.005,109.126,487.489,109.126z M487.489,141.807H16.34v-16.34h471.149
	c4.506,0,8.17,3.665,8.17,8.17S491.995,141.807,487.489,141.807z"/>
<g>
</g>
<g>
</g>
<g>
</g>
<g>
</g>
<g>
</g>
<g>
</g>
<g>
</g>
<g>
</g>
<g>
</g>
<g>
</g>
<g>
</g>
<g>
</g>
<g>
</g>
<g>
</g>
<g>
</g>
</svg>
