<svg id="Layer_1" enable-background="new 0 0 510 510" height="30" viewBox="0 0 510 510" width="30" xmlns="http://www.w3.org/2000/svg"><g><path d="m510 389.711v-15c0-74.44-60.56-135-135-135h-60c-18.103 0-35.383 3.591-51.173 10.083l5.117-70.083h31.056v-90h-65.73l16.194-32.39 98.656-28.188-8.242-28.846-111.343 31.815-28.805 57.609h-200.73v90h31.302l30 330h418.667c16.542 0 30-13.458 30-30v-60h-29.969v-30zm-287.795-64.089c17.648-33.228 52.621-55.91 92.795-55.91h60c52.805 0 96.631 39.183 103.932 90h-267.855c1.424-9.852 4.235-19.385 8.294-28.335zm-192.205-205.911h240v30h-240zm150.003 254.407c0 .199-.002.396-.003.593v15h30v30h-30v60h-91.302l-27.272-300h177.439l-6.441 88.203c-14.882 11.52-27.001 25.876-35.831 42.009-6.24 11.018-16.59 40.665-16.59 64.195zm299.966 105.593h-269.969v-30h269.975l.014 29.999c-.001 0-.008.001-.02.001zm-29.969-60h-210v-30h210z"/></g></svg>