<?xml version="1.0" encoding="iso-8859-1"?>
<!-- Generator: Adobe Illustrator 19.0.0, SVG Export Plug-In . SVG Version: 6.00 Build 0)  -->
<svg version="1.1" id="Layer_1" xmlns="http://www.w3.org/2000/svg" xmlns:xlink="http://www.w3.org/1999/xlink" x="0px" y="0px"
	 viewBox="0 0 512 512" style="enable-background:new 0 0 512 512;" xml:space="preserve">
<path style="fill:#B5CDDF;" d="M324.005,277.506l-22.631-22.631L166.15,390.099L32.392,256.337
	c-43.188,43.187-43.188,113.206,0,156.394c43.186,43.186,113.205,43.186,156.39-0.001L324.005,277.506z"/>
<path style="fill:#FB7100;" d="M500.998,131.009c14.671-14.67,14.668-38.456,0.001-53.125c-14.671-14.671-38.456-14.671-53.126,0
	L263.498,262.259l53.124,53.124L500.998,131.009z"/>
<path style="fill:#C9E5F9;" d="M32.392,256.337c-43.189,43.187-43.189,113.206,0,156.394l78.196-78.196L32.392,256.337z"/>
<path style="fill:#FF9845;" d="M500.998,77.884c-14.671-14.671-38.456-14.67-53.126,0L263.498,262.259l26.562,26.562L500.998,77.884
	z"/>
<g>
</g>
<g>
</g>
<g>
</g>
<g>
</g>
<g>
</g>
<g>
</g>
<g>
</g>
<g>
</g>
<g>
</g>
<g>
</g>
<g>
</g>
<g>
</g>
<g>
</g>
<g>
</g>
<g>
</g>
</svg>
